<svg width="12" height="12" viewBox="0 0 12 12" fill="none" xmlns="http://www.w3.org/2000/svg">
<path fill-rule="evenodd" clip-rule="evenodd" d="M11.5886 0.410704C11.914 0.736141 11.914 1.26378 11.5886 1.58921L7.17785 5.99997L11.5886 10.4107C11.914 10.7361 11.914 11.2638 11.5886 11.5892C11.2632 11.9147 10.7355 11.9147 10.4101 11.5892L5.99934 7.17848L1.58862 11.5892C1.26318 11.9146 0.735547 11.9146 0.41011 11.5892C0.0846727 11.2638 0.0846727 10.7361 0.41011 10.4107L4.82083 5.99997L0.410093 1.58923C0.0846564 1.26379 0.0846564 0.736157 0.410093 0.41072C0.73553 0.0852828 1.26317 0.0852828 1.5886 0.41072L5.99934 4.82146L10.4101 0.410704C10.7355 0.0852668 11.2632 0.0852668 11.5886 0.410704Z" fill="#727E8D"/>
</svg>
