<svg width="20" height="20" viewBox="0 0 20 20" fill="none" xmlns="http://www.w3.org/2000/svg">
<path fill-rule="evenodd" clip-rule="evenodd" d="M4.16699 1.66663C2.78628 1.66663 1.66699 2.78591 1.66699 4.16663V15.8333C1.66699 17.214 2.78628 18.3333 4.16699 18.3333H15.8337C17.2144 18.3333 18.3337 17.214 18.3337 15.8333V4.16663C18.3337 2.78591 17.2144 1.66663 15.8337 1.66663H4.16699ZM15.545 8.60939C15.8126 8.3084 15.7854 7.84752 15.4845 7.57997C15.1835 7.31243 14.7226 7.33954 14.455 7.64053L11.6667 10.7774L8.87883 7.64056C8.74047 7.48489 8.54214 7.39581 8.33386 7.39579C8.12558 7.39578 7.92724 7.48483 7.78886 7.64049L4.45507 11.3905C4.1875 11.6915 4.21458 12.1523 4.51555 12.4199C4.81652 12.6875 5.27741 12.6604 5.54497 12.3594L8.33374 9.2225L11.1217 12.3594C11.26 12.515 11.4584 12.6041 11.6667 12.6041C11.8749 12.6041 12.0733 12.5151 12.2117 12.3594L15.545 8.60939Z" fill="#AAB1BB"/>
</svg>
