<svg width="20" height="20" viewBox="0 0 20 20" fill="none" xmlns="http://www.w3.org/2000/svg">
<path fill-rule="evenodd" clip-rule="evenodd" d="M17.5876 8.51754C17.776 8.06286 17.873 7.57552 17.873 7.08335C17.873 6.59118 17.776 6.10384 17.5876 5.64916C17.3993 5.19467 17.123 4.78133 16.7749 4.43335C16.427 4.08534 16.0136 3.80889 15.559 3.62053C15.1043 3.43213 14.6169 3.33516 14.1248 3.33516C13.6326 3.33516 13.1453 3.43213 12.6906 3.62053C12.236 3.80888 11.8228 4.0851 11.4748 4.4332L11.1806 4.72737C10.5285 5.37955 9.47108 5.37955 8.81891 4.72737L8.52483 4.4333C7.82199 3.73046 6.86874 3.33561 5.87477 3.33561C4.88081 3.33561 3.92756 3.73046 3.22472 4.4333C2.52188 5.13613 2.12703 6.08939 2.12703 7.08335C2.12703 8.07731 2.52188 9.03056 3.22472 9.7334L9.99977 16.5085L16.7748 9.7334C17.1229 9.38549 17.3992 8.97218 17.5876 8.51754ZM17.9556 3.25229C18.4587 3.75525 18.8581 4.35267 19.1304 5.00989C19.4028 5.66724 19.543 6.37181 19.543 7.08335C19.543 7.79489 19.4028 8.49946 19.1304 9.15681C18.8581 9.81409 18.4589 10.4113 17.9557 10.9143L10.589 18.2809C10.2636 18.6064 9.73595 18.6064 9.41052 18.2809L2.04385 10.9143C1.02783 9.89825 0.457031 8.52022 0.457031 7.08335C0.457031 5.64647 1.02783 4.26845 2.04385 3.25243C3.05988 2.2364 4.4379 1.66561 5.87477 1.66561C7.31165 1.66561 8.68967 2.2364 9.7057 3.25243L9.99977 3.5465L10.2937 3.25257C10.7967 2.74938 11.394 2.35007 12.0513 2.07772C12.7087 1.80535 13.4132 1.66516 14.1248 1.66516C14.8363 1.66516 15.5409 1.80535 16.1982 2.07772C16.8555 2.35005 17.4526 2.74917 17.9556 3.25229Z" fill="#089B12"/>
</svg>
