<svg width="20" height="20" viewBox="0 0 20 20" fill="none" xmlns="http://www.w3.org/2000/svg">
<g clip-path="url(#clip0_1227_10254)">
<path fill-rule="evenodd" clip-rule="evenodd" d="M9.99967 0.833374C4.93706 0.833374 0.833008 4.93743 0.833008 10C0.833008 15.0627 4.93706 19.1667 9.99967 19.1667C15.0623 19.1667 19.1663 15.0627 19.1663 10C19.1663 4.93743 15.0623 0.833374 9.99967 0.833374ZM10.833 4.90746C10.833 4.44722 10.4599 4.07412 9.99969 4.07412C9.53946 4.07412 9.16636 4.44722 9.16636 4.90746V10.4075C9.16636 10.7231 9.3447 11.0117 9.62702 11.1528L13.2937 12.9861C13.7053 13.192 14.2059 13.0251 14.4117 12.6135C14.6175 12.2018 14.4507 11.7013 14.039 11.4954L10.833 9.89243V4.90746Z" fill="#AAB1BB"/>
</g>
<defs>
<clipPath id="clip0_1227_10254">
<rect width="20" height="20" fill="white"/>
</clipPath>
</defs>
</svg>
