<svg width="112" height="112" viewBox="0 0 112 112" fill="none" xmlns="http://www.w3.org/2000/svg">
<path d="M8 14.3048C8 10.8228 10.8227 8.00012 14.3047 8.00012H55.59C81.8732 8.00012 103.18 29.3069 103.18 55.5901C103.18 81.8733 81.8732 103.18 55.59 103.18C29.3068 103.18 8 81.8733 8 55.5901V14.3048Z" fill="#EDEEF3"/>
<path d="M53.9659 76.66L73.0518 87.6793C74.1373 88.306 75.5253 87.934 76.152 86.8486L90.5768 61.8641C90.8777 61.3429 90.9593 60.7234 90.8035 60.142L88.4325 51.2933C88.2767 50.7119 87.8963 50.2162 87.3751 49.9153L73.899 42.1349C72.8136 41.5082 71.4256 41.8801 70.7988 42.9656L53.1352 73.5598C52.5085 74.6453 52.8805 76.0333 53.9659 76.66Z" fill="#E5E6ED"/>
<path d="M84.7412 55.3639L87.427 50.712C87.6915 50.2538 87.5631 50.0551 87.4997 49.9932C87.9565 50.2981 88.2887 50.7596 88.4317 51.2933L90.8027 60.142C90.9463 60.6778 90.8883 61.246 90.6427 61.7398C90.6592 61.6542 90.637 61.3884 89.9361 60.9837L85.5709 58.4635C84.4854 57.8368 84.1145 56.4494 84.7412 55.3639Z" fill="#D2D4E0"/>
<path d="M45.8444 85.0739L69.4883 71.4232C71.1799 70.4465 71.7595 68.2834 70.7828 66.5917L52.5512 35.0136C52.0822 34.2013 51.3097 33.6085 50.4036 33.3657L39.44 30.428C38.534 30.1853 37.5686 30.3124 36.7562 30.7814L20.063 40.4192C18.3713 41.3959 17.7917 43.559 18.7684 45.2506L41.013 83.7794C41.9897 85.471 44.1528 86.0506 45.8444 85.0739Z" fill="#E5E6ED"/>
<path d="M35.9568 89.3683H76.041C77.9943 89.3683 79.5778 87.7848 79.5778 85.8315V37.9491C79.5778 37.0111 79.2052 36.1115 78.5419 35.4482L66.7611 23.6674C66.0978 23.0041 65.1982 22.6315 64.2602 22.6315H35.9568C34.0034 22.6315 32.4199 24.215 32.4199 26.1683V85.8315C32.4199 87.7848 34.0034 89.3683 35.9568 89.3683Z" fill="#D2D4E0"/>
<path d="M64.3006 22.6317H64.2549C64.2549 22.6317 64.8444 22.6317 64.8444 23.8108L64.8444 33.8323C64.8444 35.7856 66.4255 37.3687 68.3788 37.3687L77.8128 37.3687C79.5806 37.3687 79.5812 37.9577 79.5812 37.9583V37.8798C79.5633 36.9669 79.1929 36.0952 78.5459 35.4482L66.7652 23.6674C66.1104 23.0127 65.2255 22.6412 64.3006 22.6317Z" fill="#868BA7" fill-opacity="0.4"/>
<rect x="41.2637" y="35.0104" width="18.2737" height="2.35789" rx="1.17895" fill="#BABDCF"/>
<rect x="41.2637" y="40.9054" width="12.3789" height="2.35789" rx="1.17895" fill="#BABDCF"/>
<path d="M47.9853 58.9537C48.2782 58.6608 48.7531 58.6608 49.046 58.9537L50.5788 60.4865L52.1116 58.9537C52.4045 58.6608 52.8794 58.6608 53.1723 58.9537C53.4652 59.2466 53.4652 59.7214 53.1723 60.0143L51.6395 61.5472L53.1723 63.08C53.4652 63.3729 53.4652 63.8478 53.1723 64.1407C52.8794 64.4335 52.4045 64.4335 52.1116 64.1407L50.5788 62.6078L49.046 64.1407C48.7531 64.4335 48.2782 64.4335 47.9853 64.1407C47.6924 63.8478 47.6924 63.3729 47.9853 63.08L49.5181 61.5472L47.9853 60.0143C47.6924 59.7214 47.6924 59.2466 47.9853 58.9537Z" fill="#676D89"/>
<path d="M44.4319 75.4898C44.1615 75.176 44.1966 74.7024 44.5104 74.432C47.5107 71.8461 51.7848 70.2501 56.5 70.2501C61.2153 70.2501 65.4893 71.8461 68.4897 74.432C68.8034 74.7024 68.8385 75.176 68.5681 75.4898C68.2977 75.8035 67.8241 75.8387 67.5104 75.5682C64.805 73.2366 60.8869 71.7501 56.5 71.7501C52.1132 71.7501 48.195 73.2366 45.4897 75.5682C45.1759 75.8387 44.7023 75.8035 44.4319 75.4898Z" fill="#676D89"/>
<path d="M61.0655 58.9537C60.7726 58.6608 60.2977 58.6608 60.0048 58.9537C59.7119 59.2466 59.7119 59.7214 60.0048 60.0143L61.5377 61.5472L60.0048 63.08C59.7119 63.3729 59.7119 63.8478 60.0048 64.1407C60.2977 64.4335 60.7726 64.4335 61.0655 64.1407L62.5983 62.6078L64.1312 64.1407C64.424 64.4335 64.8989 64.4335 65.1918 64.1407C65.4847 63.8478 65.4847 63.3729 65.1918 63.08L63.659 61.5472L65.1918 60.0143C65.4847 59.7214 65.4847 59.2466 65.1918 58.9537C64.8989 58.6608 64.424 58.6608 64.1312 58.9537L62.5983 60.4865L61.0655 58.9537Z" fill="#676D89"/>
</svg>
