<svg width="44" height="30" viewBox="0 0 44 30" fill="none" xmlns="http://www.w3.org/2000/svg">
<path d="M2 0.00012207C0.896 0.00012207 0 0.896122 0 2.00012V6.00012H37.9805C39.0925 6.00012 39.9851 6.91747 39.9531 8.02747C39.9531 8.04547 39.9531 8.06806 39.9531 8.08606C39.9231 9.15206 39.0485 10.0001 37.9805 10.0001H0.101562C0.904262 18.0527 6.51084 24.6988 14 27.0626V28.0001C14 29.1041 14.896 30.0001 16 30.0001H28C29.104 30.0001 30 29.1041 30 28.0001V27.0822C38.1145 24.5338 44 16.9558 44 8.00012V2.00012C44 0.896122 43.104 0.00012207 42 0.00012207H2Z" fill="#15C421"/>
</svg>
