<svg width="40" height="40" viewBox="0 0 40 40" fill="none" xmlns="http://www.w3.org/2000/svg">
<path d="M3.33341 6.66666C2.41341 6.66666 1.66675 7.41332 1.66675 8.33332V11.6667H33.3171C34.2438 11.6667 34.9877 12.4311 34.961 13.3561C34.961 13.3711 34.961 13.3899 34.961 13.4049C34.936 14.2933 34.2071 15 33.3171 15H1.75138C2.4203 21.7104 7.09244 27.2489 13.3334 29.2187V30C13.3334 30.92 14.0801 31.6667 15.0001 31.6667H25.0001C25.9201 31.6667 26.6667 30.92 26.6667 30V29.235C33.4288 27.1114 38.3334 20.7964 38.3334 13.3333V8.33332C38.3334 7.41332 37.5867 6.66666 36.6667 6.66666H3.33341Z" fill="#15C421"/>
</svg>
